<svg id="Слой_1" data-name="Слой 1" xmlns="http://www.w3.org/2000/svg" viewBox="0 0 200 200"><defs><style>.cls-1{fill:#fff;}</style></defs><title>1</title><path class="cls-1" d="M82.45,68a2.29,2.29,0,0,0,2.29-2.29V56.51a2.29,2.29,0,1,0-4.58,0v9.15A2.29,2.29,0,0,0,82.45,68Z"/><path class="cls-1" d="M102.29,68a2.29,2.29,0,0,0,2.29-2.29V56.51a2.29,2.29,0,1,0-4.58,0v9.15A2.28,2.28,0,0,0,102.29,68Z"/><path class="cls-1" d="M80.16,102.29a2.29,2.29,0,1,0,4.58,0V93.13a2.29,2.29,0,0,0-4.58,0Z"/><path class="cls-1" d="M100,102.29a2.29,2.29,0,1,0,4.58,0V93.13a2.29,2.29,0,0,0-4.58,0Z"/><path class="cls-1" d="M80.16,138.92a2.29,2.29,0,0,0,4.58,0v-9.16a2.29,2.29,0,0,0-4.58,0Z"/><path class="cls-1" d="M100,138.92a2.29,2.29,0,0,0,4.58,0v-9.16a2.29,2.29,0,0,0-4.58,0Z"/><path class="cls-1" d="M45.82,92.37a2.29,2.29,0,0,0-2.29,2.29v9.16a2.29,2.29,0,0,0,4.58,0V94.66A2.28,2.28,0,0,0,45.82,92.37Z"/><path class="cls-1" d="M132.05,106.87V116a2.29,2.29,0,0,0,4.58,0v-9.15a2.29,2.29,0,1,0-4.58,0Z"/><path class="cls-1" d="M154.18,104.58a2.28,2.28,0,0,0-2.29,2.29V116a2.29,2.29,0,1,0,4.58,0v-9.15A2.29,2.29,0,0,0,154.18,104.58Z"/><path class="cls-1" d="M171.1,87.46,145.49,60.21a2.26,2.26,0,0,0-1.65-.71,2.5,2.5,0,0,0-1.66.68l-22.34,23v-42A2.29,2.29,0,0,0,117.55,39H65.66a2.29,2.29,0,0,0-2.29,2.29V72.53H30.56a2.3,2.3,0,0,0-2.29,2.29v50.36a2.29,2.29,0,0,0,4.58,0V77.11H63.37v31.28a2.29,2.29,0,0,0,4.58,0V43.53h47.31V156.47H53.45a2.29,2.29,0,1,0,0,4.57H145a2.29,2.29,0,1,0,0-4.57H119.84V89.7l24-24.6,23.35,24.83v32.2a2.29,2.29,0,0,0,4.58,0V89A2.29,2.29,0,0,0,171.1,87.46Z"/></svg>