<svg id="Слой_1" data-name="Слой 1" xmlns="http://www.w3.org/2000/svg" viewBox="0 0 200 200"><defs><style>.cls-1{fill:#fff;}</style></defs><title>1</title><path class="cls-1" d="M115.29,96.75a14.38,14.38,0,0,0,4.58-10.48,14.58,14.58,0,0,0-14.65-14.5H79.4a2.29,2.29,0,0,0,0,4.58h6.87v47.3H79.4a2.29,2.29,0,0,0,0,4.58h31.88a16,16,0,0,0,4-31.48Zm-10.07-20.4a9.92,9.92,0,1,1,0,19.83H90.84V76.35Zm6.1,47.3H90.84V100.76h20.35a11.77,11.77,0,0,1,11.7,11.48,11.51,11.51,0,0,1-11.61,11.41Z"/><path class="cls-1" d="M167.91,103.05a2.29,2.29,0,0,0,0-4.58h-14.5V81.69h14.5a2.29,2.29,0,0,0,0-4.58h-14.5V50.4a2.29,2.29,0,0,0-2.29-2.29h-26.7v-16a2.29,2.29,0,0,0-4.58,0v16H103.05v-16a2.29,2.29,0,1,0-4.58,0v16H81.69v-16a2.29,2.29,0,1,0-4.58,0v16H50.4a2.3,2.3,0,0,0-2.29,2.29V77.11h-16a2.29,2.29,0,0,0,0,4.58h16V98.47h-16a2.29,2.29,0,0,0,0,4.58h16v16.79h-16a2.29,2.29,0,0,0,0,4.58h16v26.7a2.29,2.29,0,0,0,2.29,2.29H77.11v14.5a2.29,2.29,0,1,0,4.58,0v-14.5H98.47v14.5a2.29,2.29,0,1,0,4.58,0v-14.5h16.79v14.5a2.29,2.29,0,1,0,4.58,0v-14.5h26.7a2.28,2.28,0,0,0,2.29-2.29v-26.7h14.5a2.29,2.29,0,1,0,0-4.58h-14.5V103.05Zm-19.07,45.79H52.69V52.69h96.15Z"/></svg>