<svg id="Слой_1" data-name="Слой 1" xmlns="http://www.w3.org/2000/svg" viewBox="0 0 200 200"><defs><style>.cls-1{fill:#fff;}</style></defs><title>1</title><path class="cls-1" d="M111.24,142.22l4.23,14.38a7.63,7.63,0,1,0,13.34,6.29h14.82a7.62,7.62,0,1,0,.91-4.58H128.21a7.5,7.5,0,0,0-8.69-4.21L117,145.8h38.28a2.28,2.28,0,0,0,2.24-1.87l6.93-37.1a2.29,2.29,0,0,0-1.84-2.66,2,2,0,0,0-.42,0H103.31l-2.52-7.52a2.29,2.29,0,0,0-2.17-1.53H89.31a2.29,2.29,0,0,0,0,4.58h7.63Zm48.27-33.59-6.1,32.59H115.72l-.1-.29-.19-.66c-.05-.13-.1-.26-.16-.38l-10.44-31.26Zm-8.31,50.29a3.05,3.05,0,1,1-3.06,3.05A3.06,3.06,0,0,1,151.2,158.92Zm-26.79,2.61a3,3,0,1,1-3-3.05A3,3,0,0,1,124.41,161.53Z"/><path class="cls-1" d="M88.73,130H40.05V59.83H147.61V92.69a2.29,2.29,0,0,0,4.58,0V32.63a2.29,2.29,0,0,0-2.29-2.28H37.76a2.29,2.29,0,0,0-2.29,2.28v99.69a2.3,2.3,0,0,0,2.29,2.29h51a2.29,2.29,0,1,0,0-4.58Zm58.88-95.11V55.27H40.05V34.92Z"/><path class="cls-1" d="M68.44,46.9h9.15a2.29,2.29,0,1,0,0-4.57H68.44a2.29,2.29,0,1,0,0,4.57Z"/><path class="cls-1" d="M49.64,46.9h9.15a2.29,2.29,0,1,0,0-4.57H49.64a2.29,2.29,0,1,0,0,4.57Z"/></svg>