<svg id="Слой_1" data-name="Слой 1" xmlns="http://www.w3.org/2000/svg" viewBox="0 0 200 200"><defs><style>.cls-1{fill:#fff;}</style></defs><title>1</title><path class="cls-1" d="M79,112V101.43c7.71-.92,13.74-6.43,13.74-13.1S86.8,76.12,79,75.25V57.7c5.25.8,9.24,4.37,9.24,8.63a2.23,2.23,0,0,0,4.44.37,2.28,2.28,0,0,0,0-.37c0-6.66-6-12.21-13.74-13.08V42.78a2.23,2.23,0,0,0-4.44,0V53.25c-7.72.9-13.73,6.42-13.73,13.09s6,12.21,13.73,13.07V97c-5.26-.79-9.25-4.36-9.25-8.64a2.23,2.23,0,0,0-4.44,0c0,6.69,6,12.21,13.74,13.1V112A2.23,2.23,0,0,0,79,112Zm9.24-23.57c0,4.28-4,7.83-9.24,8.63V79.73c5.25.79,9.24,4.35,9.24,8.6Zm-22.89-22c0-4.26,4-7.83,9.24-8.62V75c-5.29-.85-9.27-4.41-9.27-8.68Z"/><path class="cls-1" d="M123.67,77.33a46.88,46.88,0,1,0-46.92,46.84h.06A46.93,46.93,0,0,0,123.67,77.33Zm-89.29,0a42.44,42.44,0,1,1,42.44,42.44h0A42.49,42.49,0,0,1,34.38,77.33Z"/><path class="cls-1" d="M170,120.09,165.35,102a2.22,2.22,0,0,0-2.68-1.61l-18,4.58a2.21,2.21,0,0,0,.91,4.33l.22,0L158.65,106l-23.44,36.42-15.11-22a2.32,2.32,0,0,0-1.92-1,2.23,2.23,0,0,0-1.83,1.13L96,156.49,74.58,140.78a2.24,2.24,0,0,0-3,.31L49.31,165.9a2.22,2.22,0,0,0,3.29,3l21-23.34,21.86,16a2.18,2.18,0,0,0,1.78.38,2.28,2.28,0,0,0,1.53-1.07l19.84-35.1,15,21.84a2.18,2.18,0,0,0,1.86,1,2.2,2.2,0,0,0,1.84-1l25.15-39.26,3.31,12.92a2.22,2.22,0,0,0,2.13,1.66,2.71,2.71,0,0,0,.57,0,2.25,2.25,0,0,0,1.6-2.74Z"/></svg>