<svg id="Слой_1" data-name="Слой 1" xmlns="http://www.w3.org/2000/svg" viewBox="0 0 200 200"><defs><style>.cls-1{fill:#fff;}</style></defs><title>1</title><path class="cls-1" d="M94,97.18a35.63,35.63,0,0,0-35.6,35.61V135h71.19v-2.21A35.65,35.65,0,0,0,94,97.18ZM62.9,130.56a31.16,31.16,0,0,1,62.16,0Z"/><path class="cls-1" d="M93.4,93.54A20.82,20.82,0,1,0,72.59,72.71h0A20.86,20.86,0,0,0,93.4,93.54Zm0-37.18A16.38,16.38,0,1,1,77,72.75v0A16.39,16.39,0,0,1,93.4,56.36Z"/><path class="cls-1" d="M46.38,110.25a22.61,22.61,0,0,1,11.46,3l2.26-3.83a27.07,27.07,0,0,0-40.8,23.32V135H52.42v-4.44H23.88A22.61,22.61,0,0,1,46.38,110.25Z"/><path class="cls-1" d="M46,101.43A16,16,0,1,0,30,85.31v.08A16,16,0,0,0,46,101.43Zm0-27.64a11.6,11.6,0,1,1-11.6,11.6h0A11.62,11.62,0,0,1,46,73.79Z"/><path class="cls-1" d="M141.79,105.75a27.19,27.19,0,0,0-13.74,3.72l2.28,3.83a22.6,22.6,0,0,1,33.95,17.26H135.74V135h33.12v-2.21a27.05,27.05,0,0,0-27.07-27Z"/><path class="cls-1" d="M142.22,101.43a16,16,0,1,0-16.09-16,16.05,16.05,0,0,0,16.09,16Zm0-27.64a11.6,11.6,0,1,1-11.6,11.6h0A11.61,11.61,0,0,1,142.22,73.79Z"/></svg>