<svg id="Слой_1" data-name="Слой 1" xmlns="http://www.w3.org/2000/svg" viewBox="0 0 200 200"><defs><style>.cls-1{fill:#fff;}</style></defs><title>1</title><path class="cls-1" d="M137.33,43.09H48A17.17,17.17,0,0,0,30.83,60.23v51.2A17.15,17.15,0,0,0,48,128.55h8.82v26.07a2.29,2.29,0,0,0,3.84,1.68l29.82-27.75h46.87a17.17,17.17,0,0,0,17.14-17.13V60.21A17.15,17.15,0,0,0,137.33,43.09Zm12.54,68.33A12.59,12.59,0,0,1,137.31,124H89.54a2.28,2.28,0,0,0-1.52.62L61.36,149.37V126.26A2.3,2.3,0,0,0,59.07,124H48a12.55,12.55,0,0,1-12.55-12.54V60.23A12.59,12.59,0,0,1,48,47.67h89.36a12.56,12.56,0,0,1,12.54,12.54Z"/><path class="cls-1" d="M61.6,90.16a7,7,0,1,0,7,7,7,7,0,0,0-7-7Zm0,9.5a2.46,2.46,0,1,1,2.46-2.47,2.46,2.46,0,0,1-2.46,2.47Z"/><path class="cls-1" d="M81.67,90.16a7,7,0,1,0,7,7,7,7,0,0,0-7-7Zm0,9.5a2.46,2.46,0,1,1,2.46-2.47,2.46,2.46,0,0,1-2.46,2.47Z"/><path class="cls-1" d="M103.2,90.31a7,7,0,1,0,4.43,3A7,7,0,0,0,103.2,90.31Zm.92,7.4a2.46,2.46,0,1,1-1.88-2.93,2.46,2.46,0,0,1,1.88,2.93Z"/><path class="cls-1" d="M127.12,61.1a11.45,11.45,0,0,0-13.62,8.73,12.48,12.48,0,0,0-.26,2.44,2.29,2.29,0,0,0,4.58,0,6.84,6.84,0,1,1,6.87,6.84,2.29,2.29,0,0,0-2.29,2.29v9.76a2.29,2.29,0,0,0,4.58,0V83.53a11.43,11.43,0,0,0,.14-22.35Z"/><path class="cls-1" d="M124.69,98a2.3,2.3,0,0,0-2.29,2.29h0v3.05a2.29,2.29,0,1,0,4.58,0v-3.05A2.3,2.3,0,0,0,124.69,98Z"/></svg>