<svg id="Слой_1" data-name="Слой 1" xmlns="http://www.w3.org/2000/svg" viewBox="0 0 200 200"><defs><style>.cls-1{fill:#fff;}</style></defs><title>1</title><path class="cls-1" d="M131.54,34.74H68.46A14.73,14.73,0,0,0,53.73,49.46V150.54a14.73,14.73,0,0,0,14.73,14.72h63.08a14.73,14.73,0,0,0,14.73-14.72V49.46A14.73,14.73,0,0,0,131.54,34.74Zm10.15,115.8a10.15,10.15,0,0,1-10.15,10.15H68.46a10.16,10.16,0,0,1-10.15-10.15V49.46A10.16,10.16,0,0,1,68.46,39.31h63.08a10.15,10.15,0,0,1,10.15,10.15h0Z"/><rect class="cls-1" x="80.95" y="49.28" width="37.76" height="4.58"/><path class="cls-1" d="M100,136.79h0a7.63,7.63,0,1,0,0,15.26h0a7.63,7.63,0,0,0,0-15.26Zm2.15,9.76a3.07,3.07,0,0,1-2.15.89h0a3.06,3.06,0,1,1,0-6.11h0a3.05,3.05,0,0,1,2.15,5.22Z"/></svg>