<svg id="Слой_1" data-name="Слой 1" xmlns="http://www.w3.org/2000/svg" viewBox="0 0 200 200"><defs><style>.cls-1{fill:#fff;}</style></defs><title>1</title><path class="cls-1" d="M149.6,38.19H50.4a2.3,2.3,0,0,0-2.29,2.29v119a2.3,2.3,0,0,0,2.29,2.29h99.2a2.3,2.3,0,0,0,2.29-2.29v-119A2.3,2.3,0,0,0,149.6,38.19Zm-2.29,119H52.69V42.77h94.62Z"/><path class="cls-1" d="M93.13,74.82h36.63a2.29,2.29,0,1,0,0-4.58H93.13a2.29,2.29,0,0,0,0,4.58Z"/><path class="cls-1" d="M93.13,102.29h36.63a2.29,2.29,0,1,0,0-4.58H93.13a2.29,2.29,0,1,0,0,4.58Z"/><path class="cls-1" d="M93.13,129.76h36.63a2.29,2.29,0,1,0,0-4.58H93.13a2.29,2.29,0,0,0,0,4.58Z"/><path class="cls-1" d="M69.69,80.71a8.46,8.46,0,0,0,5.11,1.74,10.09,10.09,0,0,0,1.1,0,8.35,8.35,0,1,0-6.21-1.66Zm2.11-9a3.82,3.82,0,0,1,2.53-1.53h.5a3.82,3.82,0,1,1-2.3,6.87A3.92,3.92,0,0,1,71,74.54,3.78,3.78,0,0,1,71.8,71.74Z"/><path class="cls-1" d="M74.82,108.39A8.39,8.39,0,1,0,66.43,100,8.39,8.39,0,0,0,74.82,108.39Zm0-12.21A3.82,3.82,0,1,1,71,100,3.81,3.81,0,0,1,74.82,96.18Z"/><path class="cls-1" d="M74.82,135.86a8.39,8.39,0,1,0-8.39-8.39A8.39,8.39,0,0,0,74.82,135.86Zm0-12.21A3.82,3.82,0,1,1,71,127.47,3.81,3.81,0,0,1,74.82,123.65Z"/></svg>