<svg id="Слой_1" data-name="Слой 1" xmlns="http://www.w3.org/2000/svg" viewBox="0 0 200 200"><defs><style>.cls-1{fill:#fff;}</style></defs><title>1</title><circle class="cls-1" cx="85.16" cy="152.27" r="3.05"/><path class="cls-1" d="M123.31,66.07V42a6.89,6.89,0,0,0-6.87-6.87h-61A6.89,6.89,0,0,0,48.53,42V158a6.89,6.89,0,0,0,6.87,6.87h61a6.89,6.89,0,0,0,6.87-6.87V103.8c4.35-4.33,8.77-8.76,11.11-11.23a15.25,15.25,0,0,0,4.15-10.68A15.94,15.94,0,0,0,123.31,66.07ZM55.4,39.72h61A2.28,2.28,0,0,1,118.73,42V50.4H53.11V42A2.28,2.28,0,0,1,55.4,39.72Zm61,120.56h-61A2.28,2.28,0,0,1,53.11,158v-14.5h65.62V158A2.28,2.28,0,0,1,116.44,160.28Zm2.29-21.36H53.11V55h65.62V66.53A15.84,15.84,0,0,0,109.57,73a15.87,15.87,0,0,0-13.09-6.91h0a15.8,15.8,0,0,0-15.9,15.71V82a15.24,15.24,0,0,0,4.1,10.59c5.62,5.92,22.62,22.51,23.37,23.21a2.29,2.29,0,0,0,3.2,0c.08,0,3.36-3.3,7.51-7.42v30.52Zm12.38-49.51c-4.55,4.78-17.05,17.08-21.54,21.5-4.47-4.38-17-16.79-21.6-21.53a10.65,10.65,0,0,1-2.81-7.45A11.23,11.23,0,0,1,96.37,70.68h0A11.37,11.37,0,0,1,107.35,79a2.29,2.29,0,0,0,4.42,0,11.25,11.25,0,0,1,10.88-8.4h0A11.32,11.32,0,0,1,134,81.92,10.68,10.68,0,0,1,131.11,89.41Z"/><path class="cls-1" d="M148.29,71a2.29,2.29,0,1,0-3.95,2.32h0A19.2,19.2,0,0,1,147,83a18.38,18.38,0,0,1-4.91,12.82c-1.66,1.74-4,4.11-6.64,6.81a2.29,2.29,0,0,0,0,3.23,2.37,2.37,0,0,0,1.63.65,2.29,2.29,0,0,0,1.64-.69c2.68-2.72,5-5.1,6.68-6.87a22.91,22.91,0,0,0,6.11-16A23.83,23.83,0,0,0,148.29,71Z"/></svg>