<?xml version="1.0" encoding="UTF-8"?> <svg xmlns="http://www.w3.org/2000/svg" id="Слой_1" data-name="Слой 1" viewBox="0 0 300 309.64"> <defs> <style>.cls-1{fill:#3a3a3a;}.cls-2,.cls-6,.cls-7{fill:#fff;}.cls-3{fill:#1d1d1b;}.cls-4{fill:#ed5050;}.cls-5{fill:#262626;}.cls-6{opacity:0.1;}.cls-7{opacity:0.5;}.cls-8{fill:#d3eafa;}.cls-9{fill:#e4eaed;}</style> </defs> <title>Jule09-07 [преобразованный]</title> <polygon class="cls-1" points="29.1 181.74 28.25 180.69 52.16 161.38 75.53 177.56 99 143.25 122.51 155.92 146.38 121.03 169.86 177.02 193.04 138.68 216.5 153.12 240.02 105.18 263.26 120.06 262.53 121.19 240.56 107.13 217.06 155.05 193.49 140.54 169.64 179.98 146.09 123.84 122.94 157.68 99.43 145.02 75.88 179.44 52.22 163.06 29.1 181.74"></polygon> <path class="cls-1" d="M32.29,181.21a4.07,4.07,0,1,1-4.07-4.07A4.06,4.06,0,0,1,32.29,181.21Z"></path> <path class="cls-1" d="M56.26,162.22a4.07,4.07,0,1,1-4.07-4.07A4.07,4.07,0,0,1,56.26,162.22Z"></path> <path class="cls-1" d="M79.77,178.5a4.07,4.07,0,1,1-4.07-4.07A4.07,4.07,0,0,1,79.77,178.5Z"></path> <path class="cls-1" d="M103.28,144.13a4.07,4.07,0,1,1-4.07-4.06A4.07,4.07,0,0,1,103.28,144.13Z"></path> <path class="cls-1" d="M126.8,155.89a4.08,4.08,0,1,1-4.07-4.07A4.07,4.07,0,0,1,126.8,155.89Z"></path> <path class="cls-1" d="M150.31,122.43a4.07,4.07,0,1,1-4.07-4.07A4.07,4.07,0,0,1,150.31,122.43Z"></path> <path class="cls-1" d="M173.37,180.31a4.07,4.07,0,1,1-4.07-4.07A4.07,4.07,0,0,1,173.37,180.31Z"></path> <path class="cls-1" d="M197.33,139.61a4.07,4.07,0,1,1-4.07-4.07A4.07,4.07,0,0,1,197.33,139.61Z"></path> <path class="cls-1" d="M220.84,154.08a4.07,4.07,0,1,1-4.07-4.07A4.07,4.07,0,0,1,220.84,154.08Z"></path> <path class="cls-1" d="M244.35,106.15a4.07,4.07,0,1,1-4.07-4.06A4.06,4.06,0,0,1,244.35,106.15Z"></path> <path class="cls-1" d="M267,120.62a4.07,4.07,0,1,1-4.06-4.07A4.06,4.06,0,0,1,267,120.62Z"></path> <rect class="cls-1" x="25.96" y="195.68" width="6.33" height="18.08"></rect> <rect class="cls-1" x="39.08" y="181.66" width="6.33" height="32.1"></rect> <rect class="cls-1" x="52.19" y="175.78" width="6.33" height="37.98"></rect> <rect class="cls-1" x="65.3" y="189.35" width="6.33" height="24.41"></rect> <rect class="cls-1" x="78.41" y="188.9" width="6.33" height="24.87"></rect> <rect class="cls-1" x="91.53" y="168.1" width="6.33" height="45.67"></rect> <rect class="cls-1" x="104.64" y="158.6" width="6.33" height="55.16"></rect> <rect class="cls-1" x="117.75" y="167.65" width="6.33" height="46.12"></rect> <rect class="cls-1" x="130.87" y="158.15" width="6.33" height="55.61"></rect> <rect class="cls-1" x="143.98" y="145.04" width="6.33" height="68.72"></rect> <rect class="cls-1" x="157.09" y="188.29" width="6.33" height="25.47"></rect> <rect class="cls-1" x="170.2" y="191.61" width="6.33" height="22.15"></rect> <rect class="cls-1" x="183.31" y="169.01" width="6.33" height="44.76"></rect> <rect class="cls-1" x="196.43" y="154.08" width="6.33" height="59.68"></rect> <rect class="cls-1" x="209.54" y="166.74" width="6.33" height="47.02"></rect> <rect class="cls-1" x="222.65" y="163.12" width="6.33" height="50.64"></rect> <rect class="cls-1" x="235.77" y="129.21" width="6.33" height="84.55"></rect> <rect class="cls-1" x="248.88" y="125.14" width="6.33" height="88.62"></rect> <rect class="cls-1" x="261.99" y="135.09" width="6.33" height="78.67"></rect> <path class="cls-2" d="M128.06,128.76A31.14,31.14,0,1,1,96.92,97.63,31.15,31.15,0,0,1,128.06,128.76Z"></path> <path class="cls-2" d="M99.24,102.92v.17l0-.11s0-.07,0-.1a.27.27,0,0,0-.15-.19c-.22,0-.25.25-.25.43s-.06.33.47,1h.06c.48.48.54.89.88.89h.19c.18,0,0,0,.23,0h.11c.08,0,.1,0,.16,0a.24.24,0,0,0,.26-.23,0,0,0,0,0,0,0l-.72-.18h-.14c-.16,0-.2-.17-.31-.28v-.07c-.06-.06-.13-.09-.16-.18h-.06a.35.35,0,0,0-.22-.12s0,0,0-.07-.07,0-.07,0-.06-.09-.06-.15,0,0-.06,0,0-.25-.07-.37a.78.78,0,0,0,0-.16A.34.34,0,0,0,99.24,102.92Z"></path> <path class="cls-2" d="M99.24,102.92v-.1s0,0,0,.06,0,0,0,0Z"></path> <path class="cls-2" d="M98.74,100.56s0-.06-.06-.06c-.43,0-.34.19-.59.34s-.8,0-.8.15,0,0,0,.06.34.23.38.28.17,0,.25,0,.43-.51.71-.51c0,0,.09-.07.09-.1v0s0-.06,0-.09Z"></path> <path class="cls-2" d="M94.82,104.05s0-.12.06-.15c.26-.26-.14-.48-.32-.48-.34,0-.23.43-.39.63-.19,0-.81-.3-.81.08s1,1.09,1.07,1.09.17,0,.17-.09,0-.12,0-.18c0-.39.27,0,.45,0s.08-.09.08-.19-.05-.13-.08-.13-.32-.19-.45-.19,0,0,0,0c0-.25.26-.06.26-.24S94.77,104.07,94.82,104.05Z"></path> <path class="cls-2" d="M96.2,103.12a2,2,0,0,1,.34-.13.4.4,0,0,0,.16-.08,2.12,2.12,0,0,1,.4-.34c.07-.07.17-.11.17-.21s0-.23-.13-.23-1.09.44-1.09.85c0,0,0,.13.08.13Z"></path> <path class="cls-2" d="M91,113.6c-.46-.31-.47-.14-.47.06s.07.12.19.31h.06c.22.44.09.14.09.46,0,.17,0,.12.17.12a.22.22,0,0,1,.14,0,0,0,0,0,0,0,0s0,0,0,0,0,0,0,.11.39.24.48.24.19.48.19.64-.07.19-.1.19h0s0,0,0,0h0s-.08,0-.11,0c-.2.2.1.11.1.29,0,0,0,0,0,0s0,.15-.12.15-.25,0-.25.13a.12.12,0,0,0,.13.11c.13,0,.23.07.34.07.27,0-.59.22-.59.74a.07.07,0,0,0,.06.07c.41,0,.28,0,.43-.13h.06l.2-.22h0c0-.06.07,0,.07-.08v0s0,0,.08,0,.06-.12.38-.12h.22c.59,0,.18-.12.36-.12a.58.58,0,0,0,.37-.25h.07s0,0,0-.08v0c.1,0,.16-.25.16-.35,0-.45-.16-.3-.38-.42l-.46-.34v-.06s-.48-.59-.53-.62h-.06l-.09-.17v-.17s.06,0,.06,0,.08-.14.08-.2-.14-.19-.27-.24-.07-.09-.12-.12v0a.15.15,0,0,1-.09-.13l.06-.07a.78.78,0,0,1,0-.14v.06a.36.36,0,0,0,0-.11.43.43,0,0,0,0-.12,0,0,0,0,1,0,0s0,0,0,0a.13.13,0,0,1,0-.06v0a0,0,0,0,0,0,0c-.09,0-.13,0-.18,0a.32.32,0,0,0-.28.2v.13c0,.17-.1.23-.19.15h0c-.05,0-.09.07-.14.07Z"></path> <path class="cls-2" d="M91.78,113.55a.07.07,0,0,0,0,.07l0-.23a.56.56,0,0,1,0,.08A.22.22,0,0,0,91.78,113.55Z"></path> <path class="cls-2" d="M90.86,115.54h0c0-.1.1-.13.13-.19h.06c0-.06.16-.07.16-.19s0,0,0,0,0-.07,0-.07h0a.9.9,0,0,0-.21-.3h0c-.07,0-.12.1-.22.1h0s0-.06-.06-.06a.33.33,0,0,0-.16,0,.34.34,0,0,0-.29.32s-.07.1-.08.1a.33.33,0,0,0-.17,0c-.17,0-.27.28-.27.42s0,0,0,.14c.16.16,0,.07.25.07H90c.07,0,.09,0,.09.18s-.29.23-.47.37c-.29.29.14.47.37.47h.09c.44-.44.84-.28.84-.8a1.12,1.12,0,0,1-.13-.4h0S90.85,115.54,90.86,115.54Z"></path> <path class="cls-2" d="M87.05,110.15c-.06.06,0,.28,0,.35s.1,0,.14.1a.44.44,0,0,1,.06.16c0,.18.08.21.24.27l.29.08a.71.71,0,0,1,.18.08s.09.11.14.12.33-.1.44-.14a1.17,1.17,0,0,0,.44-.29,2.94,2.94,0,0,0,.44-.35.26.26,0,0,0,0-.33c-.06,0-.13,0-.19-.09s0-.08-.08-.13a.27.27,0,0,0-.28-.15l-.33,0h-.18a.31.31,0,0,0-.21,0l-.12.06-.14.07c-.16,0-.23,0-.28-.15s-.09-.16-.22-.1a.19.19,0,0,0-.14.13c0,.07,0,.11,0,.18S87.11,110.1,87.05,110.15Z"></path> <path class="cls-2" d="M86.31,108.91h0a.33.33,0,0,0-.05.22Z"></path> <path class="cls-2" d="M86.29,108.91l0,0,0,0c.26,0,.48.2.74.16a1.86,1.86,0,0,0,.47-.19,3.16,3.16,0,0,0,.66-.27.84.84,0,0,0,.3-.7c0-.26-.35-.46-.34-.69s.36-.24.56-.25.42,0,.64-.17a2,2,0,0,0,.37-.62,6.62,6.62,0,0,0,.4-.91,1.2,1.2,0,0,1,.49-.56c.2-.14.55-.25.55-.53,0-.6-.6.2-.86.1s.17-.31.21-.42a1.27,1.27,0,0,0-.14-.54c-.14-.17-.61-.09-.81,0s-.29.28-.53.26-.24-.16-.39-.14-.18.13-.28.18a.36.36,0,0,1-.3,0c-.07,0-.16-.08-.24-.08-.23,0-.54.19-.74.27a3.39,3.39,0,0,1-.79.33c-.31,0-.46,0-.7.16a.63.63,0,0,0-.24.27c-.08.18-.07.12,0,.22s.34.11.27.39-.43.54-.66.72-.17.27-.26.42a2,2,0,0,1-.37.41s-.34.23-.34.3.16.08.19.17c.18.45-.89.6-1.12.78s-.29.41-.47.6a3.49,3.49,0,0,0-.49.59,8,8,0,0,0-.53,1.29c-.07.21-.31.49-.25.7s.3.2.37.44,0,.42.21.44.38-.36.48-.51a4.94,4.94,0,0,1,1.16-.94,6,6,0,0,0,.58-.66c.18-.22.31-.21.58-.21s.51.12.72,0a3.87,3.87,0,0,0,.63-.59,1.75,1.75,0,0,0,.23-.24Z"></path> <path class="cls-2" d="M85.7,103.91c.17-.08,1-.7,1.16-.48.12-.23.3-.25.54-.26a1,1,0,0,1,.34,0c.08,0,.15.13.22.14.29,0,.84-.51.41-.6v.12s0,0,0,0a2,2,0,0,0-1.2-.49c-.23,0-.64,0-.81.17s-.08.44-.35.35c0,.31-.32.43-.57.48s-.35,0-.49.12a.75.75,0,0,0-.24.41C85.07,103.9,85.39,104.05,85.7,103.91Z"></path> <path class="cls-2" d="M84.11,103.47a.93.93,0,0,0-.1.42c0,.18.17.47.4.29s.07-.53.11-.69l0,.3a5.84,5.84,0,0,1,.25-.67c.05-.09,0-.17.12-.24s.21-.06.28-.16,0-.2.08-.28a1.53,1.53,0,0,1,.27-.3c.15-.14.33-.28.49-.41s.21-.24-.08-.38-.35,0-.55.21-.21.16-.4.23-.15,0-.25.26a1.83,1.83,0,0,0-.14.28c0,.11,0,.2,0,.3s-.21.16-.32.26a.43.43,0,0,0-.14.16c0,.06.07.09.07.09s.07,0,0,.16S84.15,103.41,84.11,103.47Z"></path> <path d="M81.93,107.29a3.1,3.1,0,0,1,.76-1.51c.36-.41,1.33-1.1.56-1.57-.42-.26-.94.3-1.25.55s-1.09,1.22-1.48.9a2.88,2.88,0,0,1,1.37-1.08c.37-.21.52-.57,1-.69.29-.09.83-.21.78-.63-.44-.19-.66.1-1,.32A2.9,2.9,0,0,0,82,104c-.19.18-.54.6-.8.68-.61.19-.17-.82-.08-1s.36-.8.62-.7,0,.37.14.49.42,0,.58-.1.47-.25.69-.39.39-.32.61-.44.43-.27.62-.42a2.62,2.62,0,0,0,.64-.6c.18-.31-.1-.26-.32-.23a2.33,2.33,0,0,0-.81.39c-.26.18-.73.67-1.06.6a2,2,0,0,1,.87-.72,12.06,12.06,0,0,1,1.36-.87,10.12,10.12,0,0,1,1.09-.4c.46-.13.87-.38,1.31-.55a3.9,3.9,0,0,1,.59-.14c.34-.09.63-.3,1-.42.93-.47,1-.49,1.09-.68a.17.17,0,0,0,0-.07,30.83,30.83,0,0,0-10.23,4.35v0h0a31.15,31.15,0,0,0-12.24,15.66,4.13,4.13,0,0,1,.37.59c-.1.49-.18.95-.2,1.13s-.13.48-.18.72,0,.45-.07.68c-.08.45-.44.95-.27,1.43.3-.2.35-.94.46-1.27a8.59,8.59,0,0,1,.36-.91c.18-.39.33-.8.51-1.2.08,0,.16,0,.32-.11a9.57,9.57,0,0,1,.84-.52c.08,0,.2,0,.26,0s.28-.32.37-.5.12-.44.23-.65.3-.39.4-.6a.53.53,0,0,1,.61-.37c.19.06.21.41.48.32s0-.39.11-.58.4-.29.6-.42.61-.41.9-.29.09.35,0,.52-.42.29-.31.48.44.12.57,0,.29-.26.57-.19.58.11.61-.23-.86-.07-.79-.7a1.18,1.18,0,0,1,.32-.66c.18-.14.4,0,.5-.26s0-.27-.2-.35c-.35-.18-.79.23-1.13,0a1.36,1.36,0,0,1,1-.53.94.94,0,0,1,.6,0c.08.06.11.18.16.24s.13.12.2.2.22.19.52.15a4,4,0,0,0,.48-.08l.14,0a1,1,0,0,1-.28.53c-.13.11-.28.23-.41.32s-.46.15-.56.38.11.31.28.46a2.38,2.38,0,0,1,.4.61c.3.5.56-.07.67-.39,0-.16.26-.51.2-.68s-.37-.11-.47-.32.22-.43.46-.65a.32.32,0,0,1,0-.09l0,.09a.55.55,0,0,0,.2-.37.79.79,0,0,0,.25-.14,1,1,0,0,0,.19-.72c0-.49.17-1,.21-1.44a1.59,1.59,0,0,1,.3-1c.13-.13,1-.66.83-.92s-1.46,1-1.39.14c.05-.63.75-.86,1-1.4.13-.25.28-.75-.14-.71s-.6.36-.85.56a3.17,3.17,0,0,0-.65.72,4.44,4.44,0,0,1-.61.8c-.25.2-.54.11-.81.24a3,3,0,0,0-.76.71c-.11.12-.63.85-.74.4,0-.17.16-.48.23-.62a5.86,5.86,0,0,1,.67-1,3.67,3.67,0,0,0,.42-.73c.21-.44.51-.85.74-1.3a4,4,0,0,1,.39-.77,3.77,3.77,0,0,1,.88-.86,3.4,3.4,0,0,1,1.29-.32,2,2,0,0,0,1-.35c0,.23.14.42.31.46a1.73,1.73,0,0,0,.83-.15c.22-.11.35-.32.56-.41a.94.94,0,0,1,.5-.11.44.44,0,0,1-.08.3s-.1.09-.13.13a1.13,1.13,0,0,1-.11.22.78.78,0,0,1-.34.19c-.09,0-.16,0-.26,0s-.12.12-.18.16c.11,0,.19.08.29.09,0,.28-.55.37-.76.46a1.14,1.14,0,0,1-.51.17c-.17,0-.41-.08-.29.18s.37.19.2.47-.48,0-.53.31c0,.11.07.17.09.26a.73.73,0,0,1,0,.29c0,.2-.17.4,0,.59a.91.91,0,0,0,.92-.44,1.14,1.14,0,0,0,.26-.48.86.86,0,0,1,.28-.52c.56-.41-.09.94.6.52A1.52,1.52,0,0,0,81.93,107.29Z"></path> <path class="cls-2" d="M77.11,114.79v0h0A.08.08,0,0,0,77.11,114.79Z"></path> <path class="cls-2" d="M68,127.68a3.32,3.32,0,0,0-.22-.58l-.1.09c-.24,0-.88-.11-.68.4.06.15.31.24.4.34s.17.25.28.37.35.3.43.27c.27-.08,0-.27,0-.39A2.92,2.92,0,0,1,68,127.68Z"></path> <path class="cls-2" d="M68.71,128.84h0Z"></path> <path class="cls-2" d="M68.19,128.8a.68.68,0,0,0,.22.49.37.37,0,0,0,.3-.44C68.57,128.67,68.37,128.74,68.19,128.8Z"></path> <path class="cls-2" d="M65.87,126.5c0-.12,0-.26,0-.36C65.88,126.26,65.88,126.38,65.87,126.5Z"></path> <path class="cls-2" d="M65.85,126.82c0,.46,0,.92-.06,1.39C66,126.77,66,127.06,65.85,126.82Z"></path> <path class="cls-2" d="M66.56,123.38c.3.21.32,1.13.35,1.45s-.13,1.69.41,1.6a7.19,7.19,0,0,0,0-1.31,4.73,4.73,0,0,0-.61-1.76c-.17-.29-.14-.69-.3-1-.09.41-.17.83-.23,1.25C66.25,123.42,66.35,123.24,66.56,123.38Z"></path> <path class="cls-2" d="M66.16,123.89c0,.13,0,.25,0,.38a2.34,2.34,0,0,0,0-.26A.49.49,0,0,0,66.16,123.89Z"></path> <path d="M79.58,150.86c0-.35-.4-.48-.4-1a1.27,1.27,0,0,1-.57-1.11,1.32,1.32,0,0,1,0-.28,2.56,2.56,0,0,0,.69-2.11c0-.29-.06-1-.32-1s-.25-.2-.39-.2a.1.1,0,0,0-.07,0,6.13,6.13,0,0,0-1.5-1.33.13.13,0,0,1,0-.06.48.48,0,0,1-.37-.19h-.46c-.19-.09-.24-.39-.45-.39s-.26.13-.4.13c-.41,0-.05-.67-.73-.67-.18,0-.18-.37-.46-.37,0-.18-.09-.27-.28-.37v-.18c-.07,0-.15-.12-.22-.12a.09.09,0,0,0-.06,0c0-.33-.5-.31-1-.65,0-.18.3-.63.12-.63s0,0,0-.08,0-.13-.09-.13c0-.34-.18-1.3-.47-1.3a.17.17,0,0,0,0-.1.26.26,0,0,0-.31-.27c0-.74-.39-.35-.39-.82v-.06l0,0h-.14v-.16l0,0h-.17c.07-.07,0-.11,0-.17h0a.44.44,0,0,1-.18-.09c-.17,0-.26-.22-.42-.29s-.37-.37-.55-.65c-.19-.46-.15-1.52-.39-1.52s-.09.17-.11.17-.12-.66-.24-.78a.32.32,0,0,0-.1.28c-.39-1.59-.23-1-.55-1-.13,0-.07,0-.07-.07s-.14-.13-.14-.19-1.07-2.18-1.09-2.18h-.18c-.17,0-.18.35,0,.35a.67.67,0,0,1,.24.16c0,.07-.13.14-.13.25s.09.06-.17.06-.18.39-.37.57c0-.18-.18-.18-.18-.37a1.39,1.39,0,0,1-.5-.48A31.1,31.1,0,0,0,78.65,154c0-.14,0-.29,0-.44s-.09-.09-.19-.09c.18-.36-.27-.37-.27-.37,0-.24-.21-.42-.21-.63s.11-.16.11-.39.71-.39.86-.39.76.49.76-.07a1,1,0,0,1-.13-.41C79.56,151.08,79.58,151,79.58,150.86Z"></path> <path class="cls-2" d="M67.33,126.43h0v0Z"></path> <path class="cls-2" d="M67.42,126.11l-.09.32.08,0A1.48,1.48,0,0,0,67.42,126.11Z"></path> <path class="cls-2" d="M97.14,121c-.15.22,0,.36.24.32.07.15,0,.33.1.46s.18.18.31.28c.26-.18.23-.74.15-1s-.13-.25-.13-.47a1.3,1.3,0,0,0,0-.52l0,.24a.76.76,0,0,0,0-.15c-.23,0-.29-.39-.5-.07s-.1.57.22.51c0,0,0,.08,0,.11l.15,0C97.51,120.89,97.25,120.81,97.14,121Z"></path> <path class="cls-2" d="M95.44,121.88h0Z"></path> <path class="cls-2" d="M94.93,122a.14.14,0,0,1,0,.06.79.79,0,0,0,.48.1,1.53,1.53,0,0,0,0-.3L95,122A.56.56,0,0,1,94.93,122Z"></path> <path class="cls-2" d="M107.71,121.26c.21.32.52-.34.71-.31a.36.36,0,0,0,.08-.27h-.11c0-.14-.1-.18-.22-.12l.09,0C108,120.56,107.55,121,107.71,121.26Z"></path> <path d="M92.35,124.5a.86.86,0,0,1-.54-.21l-.27,0a4.71,4.71,0,0,0-.8.81,6.26,6.26,0,0,1-1.18,1.79,1.38,1.38,0,0,1-.35.91,2.24,2.24,0,0,1-.45.38s0,.18-.09.18-.24.22-.36.22a3,3,0,0,0-.75,1.45c-.4.6-.67,1-.84,1.21a.82.82,0,0,0-.22.46c0,.25.15.23.15.42l.07.14c0,1.8.69,1.9.28,2.31s-.49.33-.54,1a2.43,2.43,0,0,0-.25.82c0,.94,1.13.52,1.45,1.35.26.35.67.68.67.76s0,.15,0,.23a1,1,0,0,0,.27.48c.18.18.49,0,1,.83,0,.62.63.41.74.74a1.65,1.65,0,0,1,.65.09,1,1,0,0,0,.59.32.92.92,0,0,0,.71-.32c.18,0,.27-.09.46-.18s.26,0,.26,0,.55-.36.65-.36.34-.23.66-.23a.71.71,0,0,1,.28.06c.36.36,2.73-.55,2.73-.55s.07,0,.07,0a3.66,3.66,0,0,1,1-.25.35.35,0,0,0,.28.09c.07.11.61.84.74.84s.15-.12.27-.12.08,0,.08,0,.14-.07.14-.12,1.44-.67,1.44.68c0,.66.3,1.32.3,2,.18.46.55.65.92,1a.11.11,0,0,0,0,.05c0,.12.21.15.21.26a2.56,2.56,0,0,0,.64.52c.07,0,.09.07.09.14l0,0s0,0,0,0h.22c.1.09.1.18.19.18a.77.77,0,0,0,0,.15,1,1,0,0,0,.1.52.32.32,0,0,1,.14.14.43.43,0,0,1,.19.32c.35,0-.64,1.67-.64,2.38,0,.18.28,2.42,1,2.42.18.1.18.47.46.47.75,2.26.77,1.59,1.67,2,0,.18,0,.64.18.64l.84,0c1.35,0,.63-.48,2.59-1.05.14-.13.86-.86,1.06-.86s.82-1.16,1.11-1.16c.07,0,.14-.13.2-.13a4.89,4.89,0,0,0,.5-1.09.21.21,0,0,1,.19-.19c.38,0,1.06-.4,1.06-1.6,0-.23,0-.47,0-.7a1.46,1.46,0,0,1,.1-.52c.35-.51,1.12-.76,1.25-1.19.23-.92,1.36-1.73,1.36-2.49s-.59-1.09-.66-1.76a3.6,3.6,0,0,1-.5-1.24,7.53,7.53,0,0,1,1-3,3.54,3.54,0,0,0,.67-1c1.15-2.78,1.17-2.84,1.17-3.27v-.35c0-.92.39-.58.39-1.16,0-.39-.16-.76-.16-1.14a.81.81,0,0,1,0-.16c.11-.21.13,0,.13-.25,0-.58-.32-.93-.47-.93s-.42.37-.42.41,0,.14,0,.21v0c-.23.46-.68.61-1,1-.72.85-.74.69-2.21-.54h-.19c-1.48-1.48-2.59-1-3-2.59-2-1.69-2.23-1.5-2.23-2h.08c-.27.07-.11-.19-.2-.19l-.06,0c0-.71-.83-.5-1-.87a.69.69,0,0,1-.2-.31v0a.33.33,0,0,1,.22-.12c.08,0,.62.51.91.51.09,0,.22,0,.26-.11h0c0-.58.1-.09.28.09a.2.2,0,0,1,.2-.11l.26,0c.19.37.56.46.84.84.09.09.09.27.19.37s.27.09.36.18c1.58,1.57.67,1.73,2.23,2,.37.37.92.65,1.29,1,0,.38.63,1.48.84,1.48,1.53-3.07,1.1-1.54,2.32-3,0-1-.07-.56.55-1.49A1.15,1.15,0,0,1,119,125a8.19,8.19,0,0,1,.51-2,4.14,4.14,0,0,0-.59-1.44c-.52,0-.47.43-.73.43l-.14,0c-.1,0-.33-.4-.43-.45v-.19c-.08,0-.15-.12-.23-.12s-.18.31-.18.42.06.37.06.55-.21.35-.21.63c0,.1-.08.2-.3.2a8.46,8.46,0,0,1-1.83-1.12.25.25,0,0,0,0-.07c0-.24-1-.5-1-.77v-.28c0-.55,2.05-.06,2.22.47.13,0,.25,0,.35,0,.29,0,.4-.67.81-.67a.37.37,0,0,1,.35.3c0,.08.35,0,.44,0a4.73,4.73,0,0,0,1.37-1.18c0-.1.13-.13.13-.23s.62-.32.73-.35c.18.28.55.28.74.46.37.38.26.88.64.88s.15-.81.47-.81.76.59.76.78c0,0,1.11,1.43,1.77,2.46.19.11.35.36.59.36a.38.38,0,0,0,.37-.34c0-.09-.06-.2-.06-.28a2.74,2.74,0,0,0,.25-1.16c0-1.3-1.19-2.48-1.19-4.08,0-.25-1-1.13-.5-1.4a.13.13,0,0,0,0-.06v-.13a.12.12,0,0,1,0-.11c.18.18.46.37.65.55,0-.09,0-.09.09-.09a5.09,5.09,0,0,1-.28-1.67v0a31.14,31.14,0,0,0-27.71-16.9,32.39,32.39,0,0,0-4,.24c.16.16.38.27,2.29.27.55,0,2.47.07,2.47.72,0,.09-.11.14-.2.14s-.28-.07-.28-.12,0,0,0,0-.09,0-.09-.06c-.86,0,.32,1,.93.06h.17c.52,0,1-.19,1.49-.19.19,0,.6,0,.6.29,0,0-.13,0-.13,0a.65.65,0,0,0,.09.1l-.06-.06c-.89,0-.48,0-.74.25.82.21.8.15.8.56a.13.13,0,0,1-.12.12l-.49,0a.59.59,0,0,0-.59.63c0,.1.27.16.33.16a.1.1,0,0,0,.07,0c0,.09.2.15.24.15s.14,0,.21,0c.25,0,.32.63.35.82a12.43,12.43,0,0,0,1.82.81c.13,0,.16,0,.16.12s-.49.18-.68.18c0,.09.22.29.32.29s.92.39,0,.39c-.25-.41-1-.72-1-.43,0,.66,1.6,1,2,1,.18,0,.32.52-.08.52-.18,0-.27-.25-.55-.25a.34.34,0,0,0-.38.36c0,.19.2.29.33.42v.12c-.06.07-.12.13-.18.13-1,0-.42,1.68-.93,1.68-.14,0-.13.46-.13.6a.14.14,0,0,0,.13.13v.12c-.13.06-.31,0-.43.12a.28.28,0,0,1,.08.19c0,.16,0,.21-.27.21a9.62,9.62,0,0,0-1.11-.46c.31-.44,1.24-.34,1.24-.86,0-.18-.14-.53-.35-.53a8.56,8.56,0,0,0-1.81.39.17.17,0,0,1-.16-.12h0c0-.59-.08-.12-.16-.12s-.14-.09-.18-.13-.1.05-.14.05h0c0-.07-.06-.17-.06-.25s-.13,0-.24,0,0-.62-.43.08h0s-.11-.06-.18-.06-.15.43-.27.43-.09-.06-.13-.06-.07.13-.07.18,0,.12,0,.18,0,.15-.12.15-.42-.29-.42.24c0,.16.12.18.27.26l0,0s-.07.08-.1.11.09,0,.09.09-.64.32-.64.37.13.17.13.29-.13,0-.23.15c.3,0,0,.32,0,.54s0,.12-.05.12l-.2,0a.16.16,0,0,0-.16.09,0,0,0,0,0,0,0c0,.07.14.11.18.19a0,0,0,0,1,0,0c0,.09-.15.12-.15.24s.24,0,.24.12-.22.23-.29.23-.12-.15-.15-.15c-.22,0-.22.3-.22.43h0c0,.08.18.09.18.22s0,.09-.06.09-.12-.06-.17-.06h0c-.07.08-.22.15-.22.23a0,0,0,0,0,0,0c0,.13.08.3.13.47,0,0,0,0,0,0a.28.28,0,0,0-.17.23c0,.21.26.29.38.44v0c0,.06-.15.1-.15.16a0,0,0,0,0,0,0c.16.12.27.36.48.36s.36-.52.64-.66a.77.77,0,0,1,.12-.13.11.11,0,0,1,.12-.08H96c.13,0,.77.89.81,1s0,.19,0,.27a.26.26,0,0,0,.26.3c.6,0,.41-1.19.62-1.56.21,0,.4-.31.4-.45,0-.62-.85-.08-.85-.88a.75.75,0,0,1,.06-.32.84.84,0,0,0,.26-.66,5.22,5.22,0,0,0,0-.54c0-.1.15-.14.23-.21-.21,0-.09-.7.16-.7s.11.21.32.28c.14.29,0,.84,0,1.44.48.48,0,1,.56,1,.37,0,.76-.78,1.11-1.14.15,0,.26.08.39.08s.29-.24.29-.39a.14.14,0,0,1,.13-.13c.24,0,.55,0,.57.45-.17.17-.51.17-.6.38s0,0-1.25.94a.83.83,0,0,0-.08.28c-.11,0-.25,0-.25.18a.44.44,0,0,0,.3.1c.27,0,.15-.1.38-.1a.13.13,0,0,1,.12.12c0,.32-.15.45-.33.45s-.42-.33-.42,0a.64.64,0,0,0,.07.3s0,0,0,0,.12.33.12.38c0,.26-.41.67-1,.67-.38,0-1,.82-1.42.82a.65.65,0,0,1-.26-.17c0-.23-.22-.34-.22-.4s.1-.13.1-.2v0a1,1,0,0,1-.48-.83c0-.11,0-.17-.1-.17s-.21,0-.21.14c0,.36-.13.12-.38.37,0,0,0,0,0,0s.16.18.16.27-.24.1-.24.22v0c0,.21.35.13.44.34a1.26,1.26,0,0,1,.06.22c0,.15-.08.3-.08.45s-.55.26-.72.26-.21-.06-.21.07a5.53,5.53,0,0,1-1.7,2.34c-.19,0,.1-.23-.46,0,0,.05-.08.1-.08.15s-.23.11-.32.11c-.58.19-.88-.14-.88.47v.1c0,.15.08.22.16.22s.2-.14.28-.14.09.33.17.38h0c.11,0,.18-.18.32-.18s.07.13.16.18.35,0,.47.12a1.36,1.36,0,0,1,.12.61c0,.18,0,.35,0,.53s.13.35-.42.35c-.06,0-.06-.12-.12-.12l-.15,0c-.22,0-.46.08-.65.08,0,.14-.41.32-.49.32s-.13-.09-.21-.09l0,0c0-.13-.32-.24-.47-.25s-.12.09-.17.13v0c0,.06.13.07.13.14,0,.39,0,.82-.17,1s-.54.22-.54.56c0,.15.12.19.12.51,0,1,.85.62.85,1.17a.25.25,0,0,0,.19.09c.14,0,.25-.18.37-.18s.09.18.13.18.25.05.37.05.12-.11.12-.28c0,0,1.66,0,1.66-1.15,0-.14.2-.26.31-.26a1,1,0,0,1-.16-.51c0-.35.3-.61.72-.82a.23.23,0,0,1,.07-.07s.14,0,.37-.19c.16,0,.24.08.24-.37.11,0,.08-.13.15-.13s.08,0,.08,0,.07,0,.11,0l0,0s0,0,0,0,.09,0,.09-.07a0,0,0,0,0,0,0,1.89,1.89,0,0,0,1.35-.63c.1,0,.23.09.36.09s0,.05.12.05c.4,0,2.23,1.3,2.61,1.3.13,0,.63,0,.63.16s-.14.43-.14.66a.13.13,0,0,0,0,.06c-.08.11-.12.25-.3.24-.06.25-.38,0-.57,0s-.24-.08-.21.13.08.14.18.18a3.19,3.19,0,0,0,.63.09,1.14,1.14,0,0,0,.55,0,.6.6,0,0,1-.13-.49l0,.31c0-.11,0-.24,0-.35a.39.39,0,0,0,.28-.24c.47-.71-.38-1.16.22-1.16.25,0,.22-.1.22-.18a.09.09,0,0,0,.07-.09.87.87,0,0,0-.15-.32l-.07,0s0,0,0-.06H101c-.09,0-.17,0-.25,0s-.35.24-.9,0a.42.42,0,0,1-.22,0h-.26c-.41,0-.53-.19-.81-.48v-.12a1,1,0,0,1-.52-.91.78.78,0,0,1,0-.14c.12,0,.12-.12.19-.12h.43c.14,0,.31.31.37.43.48.79,2,.36,2.6,1.42,0,.26.69.49.69.86,0,0,.54.8.54.81.07.2.56.4.56.24a1,1,0,0,1,.55-1s0,0,0-.06.09-.22.09-.32a.14.14,0,0,0,0-.06,1,1,0,0,1-.43-.18h-.31a.25.25,0,0,1-.21-.26c0-.4.34-.85,1.26-.85.11.41.56.35.56.85s1.17.64,1.67.69c.25,0,.08-.39.29-.39.47,0,0,.38.82-.47.16-.08.86-.22.86,0,.13.61.6.72.6,1.83a1,1,0,0,0,.14.51c-.19.47-.54,1-1,1-.22,0-.43,0-.67,0s-.54.81-.65.93a.35.35,0,0,0-.28.09,2.64,2.64,0,0,0-.83-.09,2.42,2.42,0,0,1-.84-.1.22.22,0,0,1-.23.12c-.36,0-.48-.23-.77-.23-.91,0,0,1.72-1.16,1.72a5.64,5.64,0,0,1-2.33-.49c-.27,0,.07-.28-1.72-.28-.06,0-.16-.09-.16-.25s0-.07,0-.09,0,0,.09,0-.12-.15-.12-.22-.16,0-.16-.15,0-.17,0-.17.13-.13.2-.13a6.38,6.38,0,0,0,0-1.09c-.52,0-2.7,0-2.7.5,0,.15-.49.15-.64.15a1.73,1.73,0,0,0-.65.09c-.18.28-.65.37-.83.65A5.79,5.79,0,0,1,92.35,124.5Zm13.47-9c.07-.39.58-.9,1-.7s.13.59,0,.79v-.07a.38.38,0,0,1-.09.09,1.09,1.09,0,0,1-.34.17C106.15,115.88,105.75,115.87,105.82,115.5Zm-.47,3.3h0c0,.33-.75.94-.81.46,0-.16.07-.21.16-.29s.12,0,.15-.07,0-.14,0-.13c.16-.14.32-.06.49,0h0l0,0a.14.14,0,0,1,0,.09Zm2.73-1.19c-.22,0-.37-.16-.61-.13s-.5.17-.75.22-.43.06-.59.26-.16.38-.37.53-.25.21-.48.14a1.15,1.15,0,0,0-.28-.09c-.12,0-.24,0-.35,0a.59.59,0,0,1-.39-.52c0-.18.13-.39.09-.58s-.11-.17-.14-.28a1,1,0,0,1,0-.34,4.66,4.66,0,0,1,0-.75c.07-.38.56-.44.85-.26s.39.56.65.75.4-.31.58-.49a.86.86,0,0,1,.67-.21l0,0,0,0a.37.37,0,0,1,.15,0s0,0,0,0c.64.23,1.77,0,1.93.83C109.15,117.2,108.44,117.63,108.08,117.61Zm4.8-3.82,0,.09c0-.31.52-.15.34.19S112.69,114.06,112.88,113.79Zm.88,3.36a1.76,1.76,0,0,1-.7.34,1.35,1.35,0,0,1-1-.78c-.11-.23-.14-.54-.26-.75s-.31-.23-.52-.3a2.81,2.81,0,0,1-1.11-.67c-.26-.28-.59-.32-.76-.69a1.07,1.07,0,0,1,.06-1.21.83.83,0,0,1,.81-.44c.34,0,.64.22.61.58.06.21-.19.2-.24.4s.12.37.24.48.41.13.56.26a4.7,4.7,0,0,1,.45.44,6.42,6.42,0,0,0,1.19.9c.34.2.84.49.93.9A.46.46,0,0,1,113.76,117.15Z"></path> <path class="cls-2" d="M120.24,142.27a3.26,3.26,0,0,0-.24-.4h0s-.09.08-.09.12v0l-.08.29s0,.12,0,.13l-.17.07s0,0,0,.08,0,.17,0,.21l-.18.13-.09.07c-.86.79-1,0-1.22,1.07a.3.3,0,0,0,0,.19c0,.06.12.21.12.21s0,0,0,.14.16.18.08.23-.1,0-.14.12-.26.65-.26.68,0,.18,0,.27v0l-.08,0s0,0,0,0,.21.14.21.23a.11.11,0,0,1,0,.06c0,.09-.11.35,0,.39s.09,0,.16.15-.13.14.19.22a2.32,2.32,0,0,0,.43.11.49.49,0,0,0,.44-.08c.18-.14.24-.08.31-.24l0-.09a1.07,1.07,0,0,0,.16-.44v0c0-.2-.06-.4-.06-.6a4.16,4.16,0,0,1,.2-.79c.06-.28.07-.54.14-.81v0a1,1,0,0,0,.14-.44.46.46,0,0,0,0-.19l-.05-.1a.06.06,0,0,1,.06-.06c.06,0,.07.06.13.12a.51.51,0,0,0,.13.09s0,0,0,.06a.15.15,0,0,0,.09,0s.08,0,.08-.06-.07-.12-.07-.18a.05.05,0,0,1,0,0,5.36,5.36,0,0,0-.19-.57,2.33,2.33,0,0,0-.09-.28S120.27,142.34,120.24,142.27Z"></path> <path class="cls-2" d="M126.06,122.69c0,.12,0,.23,0,.34,0,.57.28.87.4.87s.32-.41.32-.54-.19-.25-.19-.46.06-.3.06-.46-.12-.36-.3-.36a.52.52,0,0,0-.44.35C125.89,122.56,126,122.61,126.06,122.69Z"></path> <path class="cls-3" d="M96.33,168.25l-1.25,0,0-.62,1.23,0Zm1.25,0v-.62l1.23,0,0,.62Zm-3.75-.11L92.58,168l.07-.62,1.23.12Zm6.25,0,0-.62c.42,0,.82-.07,1.23-.12l.07.62C100.92,168.06,100.5,168.1,100.08,168.13Zm-8.74-.27c-.42-.05-.83-.12-1.24-.19l.11-.61,1.22.19Zm11.23,0-.09-.62,1.22-.19.11.61Zm-13.7-.43c-.41-.08-.82-.17-1.22-.27l.14-.6,1.21.27Zm16.17,0-.13-.61c.41-.08.81-.17,1.21-.27l.14.6Zm-18.61-.57-1.2-.35.19-.6,1.18.35Zm21,0-.17-.6c.4-.11.79-.22,1.18-.35l.19.6ZM84,166.11l-1.18-.43.22-.58,1.16.42Zm25.83,0-.21-.59,1.16-.42.22.58Zm-28.18-.88-1.15-.5.26-.57,1.13.5Zm30.51,0-.24-.57c.38-.16.75-.32,1.13-.5l.26.57Zm-32.79-1-1.12-.58.29-.55c.37.2.73.39,1.1.57Zm35.06,0-.27-.56,1.09-.56.29.55Q115,163.88,114.47,164.15ZM77.19,163c-.36-.21-.72-.42-1.07-.64l.33-.53c.34.21.7.43,1,.63Zm39.49,0-.32-.54,1.06-.63.33.53Zm-41.62-1.31c-.35-.23-.69-.47-1-.71l.36-.51c.34.24.67.47,1,.7Zm43.74,0-.35-.52c.35-.23.68-.46,1-.7l.36.51C119.49,161.18,119.15,161.42,118.8,161.65ZM73,160.2l-1-.77.39-.49c.32.26.64.52,1,.77Zm47.82,0-.38-.5,1-.76.39.48Zm-49.76-1.58c-.32-.27-.63-.55-.94-.83l.42-.46.92.82Zm51.7,0-.41-.47.92-.82.42.45Zm-53.54-1.7c-.3-.29-.6-.59-.88-.89l.45-.43c.28.3.57.59.86.88Zm55.38,0-.44-.45.87-.87.45.43Zm-57.11-1.81c-.28-.31-.55-.62-.82-.94l.47-.4c.26.31.54.62.81.93Zm58.84,0-.47-.42q.42-.47.81-.93l.48.4ZM65.89,153.2c-.25-.33-.51-.66-.75-1l.5-.37c.24.33.49.66.74,1Zm62.07,0-.49-.39c.26-.32.51-.65.75-1l.5.37C128.47,152.53,128.22,152.86,128,153.19Zm-63.55-2c-.24-.34-.47-.69-.7-1l.53-.33c.22.34.45.68.68,1Zm65,0-.51-.35c.23-.34.46-.68.68-1l.52.34C129.92,150.48,129.68,150.83,129.45,151.17Zm-66.4-2.09c-.21-.36-.42-.72-.62-1.08l.54-.3.62,1.06Zm67.76,0-.54-.32c.21-.35.42-.71.62-1.07l.55.31Zm-69-2.16c-.19-.37-.37-.74-.55-1.12l.56-.27c.17.37.36.74.55,1.1Zm70.2,0-.55-.29c.19-.36.37-.73.55-1.1l.56.27Zm-71.27-2.22c-.17-.39-.33-.77-.49-1.16l.58-.23c.15.38.31.76.48,1.13Zm72.35-.05-.57-.25q.24-.56.48-1.14l.57.24C133.44,143.83,133.28,144.22,133.11,144.6Zm-73.29-2.28c-.14-.39-.28-.78-.41-1.18L60,141c.13.39.27.78.41,1.16Zm74.22,0-.58-.21c.14-.39.27-.78.4-1.17l.59.19C134.32,141.48,134.19,141.88,134,142.27Zm-75-2.33c-.12-.4-.23-.8-.34-1.2l.61-.16c.1.4.21.8.32,1.19Zm75.79-.05-.6-.18c.12-.39.22-.79.33-1.19l.6.16Zm-76.42-2.37c-.1-.41-.18-.82-.26-1.23l.61-.11c.08.4.16.8.25,1.2Zm77-.06-.6-.13c.09-.4.17-.81.25-1.21l.61.12C135.63,136.65,135.54,137.06,135.45,137.46Zm-77.52-2.4-.18-1.24.62-.08c.05.41.11.82.18,1.22Zm78-.06-.62-.1c.06-.4.12-.81.17-1.22l.62.08C136.05,134.18,136,134.59,135.93,135Zm-78.31-2.42c0-.42-.08-.83-.11-1.25l.63,0c0,.41,0,.82.1,1.23Zm78.62-.06-.62-.06c0-.41.07-.82.1-1.23l.62,0C136.31,131.69,136.28,132.1,136.24,132.52Zm-78.78-2.44q0-.63,0-1.26h.63c0,.42,0,.83,0,1.24ZM136.4,130l-.63,0c0-.41,0-.82,0-1.23v-.12h.62v.11C136.41,129.18,136.41,129.6,136.4,130Zm-78.33-2.43-.62,0c0-.42,0-.83.06-1.25l.62,0C58.1,126.77,58.09,127.18,58.07,127.59Zm77.7-.17-.06-1.23.62,0c0,.41,0,.83.06,1.25Zm-77.55-2.29-.62-.06c0-.41.09-.83.14-1.24l.62.07C58.31,124.31,58.26,124.72,58.22,125.13Zm77.39-.17c0-.41-.09-.82-.14-1.23l.62-.08c0,.42.1.83.14,1.25Zm-77.08-2.28-.62-.09c.07-.42.14-.83.22-1.24l.61.12C58.66,121.87,58.59,122.28,58.53,122.68Zm76.76-.17c-.06-.4-.14-.81-.21-1.21l.61-.12c.08.41.15.82.22,1.23ZM59,120.26l-.61-.13c.09-.41.19-.82.29-1.22l.61.15C59.17,119.46,59.08,119.86,59,120.26Zm75.83-.17c-.09-.4-.19-.8-.29-1.2l.6-.15c.11.4.2.81.3,1.21ZM59.6,117.87l-.6-.17c.12-.4.25-.8.38-1.2l.59.2C59.84,117.08,59.72,117.48,59.6,117.87Zm74.6-.16c-.12-.4-.24-.79-.37-1.18l.59-.2c.13.4.25.8.37,1.2Zm-73.83-2.19-.59-.21c.15-.39.29-.78.45-1.17l.58.23C60.65,114.75,60.51,115.14,60.37,115.52Zm73-.15c-.14-.39-.29-.77-.44-1.15l.57-.24c.16.39.31.78.46,1.17Zm-72.14-2.14-.56-.25c.16-.38.34-.76.52-1.14l.56.27C61.62,112.48,61.45,112.85,61.28,113.23Zm71.22-.15c-.17-.37-.34-.74-.52-1.11l.57-.27c.18.37.35.75.52,1.13ZM62.34,111l-.55-.29c.19-.37.39-.74.59-1.1l.55.3C62.73,110.27,62.53,110.63,62.34,111Zm69.1-.13c-.19-.37-.39-.73-.59-1.08l.54-.31c.21.36.4.73.6,1.1Zm-67.9-2-.53-.32.66-1.07.53.34C64,108.14,63.76,108.49,63.54,108.84Zm66.69-.12c-.21-.35-.43-.7-.65-1l.52-.34c.23.35.45.7.67,1.06Zm-65.35-2-.51-.35c.23-.34.48-.69.72-1l.5.37C65.35,106.09,65.11,106.42,64.88,106.76Zm64-.1-.72-1,.5-.37.73,1Zm-62.56-1.89-.49-.38c.26-.33.52-.65.79-1l.48.4C66.85,104.13,66.6,104.45,66.34,104.77Zm61.09-.09c-.26-.33-.52-.64-.78-1l.48-.4c.26.32.53.64.79,1Zm-59.51-1.8-.46-.41c.28-.31.56-.62.85-.92l.45.43C68.48,102.27,68.2,102.58,67.92,102.88Zm57.92-.09c-.27-.3-.55-.61-.84-.9l.45-.43c.29.3.57.61.85.92ZM69.63,101.1l-.44-.45c.29-.29.6-.58.9-.86l.43.46C70.22,100.52,69.92,100.81,69.63,101.1Zm54.51-.09-.9-.85.42-.46c.31.29.61.57.91.87ZM71.43,99.42,71,99l1-.8.4.48C72.06,98.89,71.74,99.15,71.43,99.42Zm50.89-.08-.94-.79.39-.48,1,.8Zm-49-1.47-.38-.5,1-.74.36.5Zm47.06-.08c-.32-.25-.65-.49-1-.73l.36-.51,1,.74ZM75.35,96.43,75,95.91l1-.67.33.52Zm43-.07c-.34-.23-.69-.45-1-.67l.33-.53c.36.22.71.45,1.06.68Zm-41-1.23-.31-.54L78.21,94l.3.55Q78,94.82,77.43,95.13Zm38.86-.07q-.53-.32-1.08-.6l.3-.55,1.09.61ZM79.6,94l-.28-.55c.37-.19.75-.37,1.13-.54l.26.56Zm34.52-.07L113,93.37l.26-.57c.38.17.75.35,1.13.54Zm-32.29-1-.24-.57,1.16-.47.22.59C82.59,92.62,82.21,92.78,81.83,92.93Zm30-.06c-.38-.16-.77-.31-1.15-.45l.22-.59,1.16.47Zm-27.74-.82-.2-.59,1.18-.39.19.59ZM109.55,92l-1.17-.38.18-.59q.6.18,1.2.39Zm-23.07-.68-.16-.59c.4-.12.8-.22,1.21-.32l.15.6Zm20.71,0L106,91l.14-.6c.41.09.82.2,1.22.31Zm-18.31-.54-.13-.61L90,89.88l.11.62Zm15.92,0-1.21-.22.1-.62q.61.11,1.23.24ZM91.3,90.3l-.08-.62,1.24-.16.07.62Zm11.07,0-1.23-.15.07-.61c.42,0,.83.09,1.24.15ZM93.76,90l-.05-.62L95,89.32,95,90C94.57,90,94.17,90,93.76,90Zm6.16,0c-.41,0-.82-.06-1.23-.07l0-.63,1.25.08Zm-3.7-.11v-.62c.41,0,.83,0,1.25,0v.62C97,89.89,96.63,89.9,96.22,89.9Z"></path> <rect class="cls-2" x="177.13" y="100.1" width="21.18" height="2.35"></rect> <rect class="cls-2" x="177.13" y="105.39" width="45.39" height="2.35"></rect> <rect class="cls-2" x="177.13" y="114.5" width="9.08" height="0.78"></rect> <rect class="cls-2" x="187.73" y="114.5" width="6.81" height="0.78"></rect> <rect class="cls-2" x="196.05" y="114.5" width="6.81" height="0.78"></rect> <rect class="cls-2" x="204.37" y="114.5" width="13.62" height="0.78"></rect> <rect class="cls-2" x="219.5" y="114.5" width="15.89" height="0.78"></rect> <rect class="cls-2" x="177.13" y="117.52" width="15.89" height="0.78"></rect> <rect class="cls-2" x="194.53" y="117.52" width="6.81" height="0.78"></rect> <rect class="cls-2" x="202.85" y="117.52" width="2.27" height="0.78"></rect> <rect class="cls-2" x="206.64" y="117.52" width="8.32" height="0.78"></rect> <rect class="cls-2" x="216.47" y="117.52" width="15.13" height="0.78"></rect> <rect class="cls-2" x="177.13" y="139.46" width="15.89" height="0.78"></rect> <rect class="cls-2" x="194.53" y="139.46" width="6.81" height="0.78"></rect> <rect class="cls-2" x="202.85" y="139.46" width="2.27" height="0.78"></rect> <rect class="cls-2" x="206.64" y="139.46" width="8.32" height="0.78"></rect> <rect class="cls-2" x="216.47" y="139.46" width="9.83" height="0.78"></rect> <rect class="cls-2" x="177.13" y="121.3" width="9.08" height="0.78"></rect> <rect class="cls-2" x="187.73" y="121.3" width="6.81" height="0.78"></rect> <rect class="cls-2" x="196.05" y="121.3" width="6.81" height="0.78"></rect> <rect class="cls-2" x="204.37" y="121.3" width="6.81" height="0.78"></rect> <rect class="cls-2" x="212.69" y="121.3" width="7.56" height="0.78"></rect> <rect class="cls-2" x="177.13" y="124.33" width="9.84" height="0.78"></rect> <rect class="cls-2" x="188.48" y="124.33" width="6.81" height="0.78"></rect> <rect class="cls-2" x="196.8" y="124.33" width="2.27" height="0.78"></rect> <rect class="cls-2" x="200.59" y="124.33" width="14.37" height="0.78"></rect> <rect class="cls-2" x="216.47" y="124.33" width="9.83" height="0.78"></rect> <rect class="cls-2" x="177.13" y="133.41" width="9.08" height="0.78"></rect> <rect class="cls-2" x="187.73" y="133.41" width="6.81" height="0.78"></rect> <rect class="cls-2" x="196.05" y="133.41" width="6.81" height="0.78"></rect> <rect class="cls-2" x="204.37" y="133.41" width="6.81" height="0.78"></rect> <rect class="cls-2" x="212.69" y="133.41" width="7.56" height="0.78"></rect> <rect class="cls-2" x="177.13" y="136.43" width="9.84" height="0.78"></rect> <rect class="cls-2" x="188.48" y="136.43" width="6.81" height="0.78"></rect> <rect class="cls-2" x="196.8" y="136.43" width="2.27" height="0.78"></rect> <rect class="cls-2" x="200.59" y="136.43" width="14.37" height="0.78"></rect> <rect class="cls-2" x="216.47" y="136.43" width="9.83" height="0.78"></rect> <rect class="cls-2" x="201.34" y="100.1" width="21.18" height="2.35"></rect> <rect class="cls-4" x="112.16" y="128.92" width="110.74" height="73.04"></rect> <rect x="112.11" y="128.76" width="110.82" height="8.17"></rect> <path class="cls-5" d="M224.4,124.1H110a4.19,4.19,0,0,0-4.17,4.34v78.75H228.57V128.44A4.19,4.19,0,0,0,224.4,124.1ZM222.9,202H112.16v-73H222.9Z"></path> <path class="cls-2" d="M88.2,207.21v2.14a4.26,4.26,0,0,0,4.17,4.34H242a4.25,4.25,0,0,0,4.17-4.34v-2.14Z"></path> <rect class="cls-2" x="115.03" y="131.1" width="3.5" height="3.5"></rect> <rect class="cls-2" x="119.7" y="131.1" width="3.5" height="3.5"></rect> <rect class="cls-2" x="124.36" y="131.1" width="3.5" height="3.5"></rect> <rect class="cls-2" x="131.36" y="131.1" width="80.49" height="3.5"></rect> <rect class="cls-2" x="214.77" y="131.1" width="5.25" height="0.58"></rect> <rect class="cls-2" x="214.77" y="132.55" width="5.25" height="0.58"></rect> <rect class="cls-2" x="214.77" y="134.01" width="5.25" height="0.58"></rect> <path d="M245.67,93.19a3.47,3.47,0,0,1-.64-.06H234.11a1.67,1.67,0,0,1-.31,0,3.56,3.56,0,0,1-1.15-6.91A3.45,3.45,0,0,1,236,83.32a3.83,3.83,0,0,1,1,.13A5.23,5.23,0,0,1,246.2,86a3.6,3.6,0,0,1-.53,7.16ZM236,83.74a3,3,0,0,0-3,2.65l0,.13-.13,0a3.14,3.14,0,0,0,.92,6.13h0a1.14,1.14,0,0,0,.26,0h11a3.79,3.79,0,0,0,.58,0,3.2,3.2,0,0,0,.31-6.35l-.16,0,0-.16a4.8,4.8,0,0,0-8.56-2.41l-.1.12-.14,0A3.12,3.12,0,0,0,236,83.74Z"></path> <path class="cls-3" d="M28.64,156.08a.56.56,0,0,1-.56.56.56.56,0,1,1,0-1.12A.56.56,0,0,1,28.64,156.08Z"></path> <rect class="cls-3" x="27.43" y="154.69" width="3.17" height="0.93" transform="translate(-97.3 60.5) rotate(-42.56)"></rect> <rect class="cls-3" x="27.73" y="150.71" width="0.62" height="5.61"></rect> <rect class="cls-3" x="27.73" y="148.23" width="0.62" height="1"></rect> <rect class="cls-3" x="35.2" y="155.77" width="1" height="0.62"></rect> <rect class="cls-3" x="20.31" y="155.77" width="1" height="0.62"></rect> <rect class="cls-3" x="27.73" y="163.24" width="0.62" height="1"></rect> <path class="cls-3" d="M28.23,165.06a8.84,8.84,0,1,1,8.83-8.83A8.84,8.84,0,0,1,28.23,165.06Zm0-16.74a7.91,7.91,0,1,0,7.91,7.91A7.91,7.91,0,0,0,28.23,148.32Z"></path> <path class="cls-3" d="M28.23,147.82a.19.19,0,1,1-.19-.19A.19.19,0,0,1,28.23,147.82Z"></path> <path class="cls-3" d="M36.74,156.08a.19.19,0,0,1-.19.18.18.18,0,0,1-.18-.18.18.18,0,0,1,.18-.19A.19.19,0,0,1,36.74,156.08Z"></path> <path class="cls-3" d="M28.26,164.52a.19.19,0,1,1-.37,0,.18.18,0,0,1,.19-.18A.18.18,0,0,1,28.26,164.52Z"></path> <path class="cls-3" d="M20.05,156.08a.18.18,0,0,1-.18.18.18.18,0,0,1-.19-.18.18.18,0,0,1,.19-.19A.18.18,0,0,1,20.05,156.08Z"></path> <polygon class="cls-3" points="22.82 160.15 22.71 160 28.17 155.92 28.28 156.07 22.82 160.15"></polygon> <path class="cls-1" d="M213,191.1h-92.8V147.66H213Zm-92.43-.37h92.05V148H120.56Z"></path> <rect class="cls-1" x="137.79" y="147.84" width="0.37" height="43.07"></rect> <rect class="cls-1" x="155.01" y="147.84" width="0.37" height="43.07"></rect> <rect class="cls-1" x="172.22" y="147.84" width="0.37" height="43.07"></rect> <rect class="cls-1" x="189.43" y="147.84" width="0.37" height="43.07"></rect> <rect class="cls-1" x="206.64" y="147.84" width="0.37" height="43.07"></rect> <rect class="cls-1" x="120.37" y="158.19" width="92.58" height="0.37"></rect> <rect class="cls-1" x="120.37" y="169.19" width="92.58" height="0.37"></rect> <rect class="cls-1" x="120.37" y="180.2" width="92.58" height="0.37"></rect> <polygon class="cls-2" points="179.43 189.24 174.91 189.24 174.91 187.8 172.67 187.8 172.67 182.78 171.02 182.78 171.02 185.2 170.64 185.2 170.64 186.53 168.13 186.53 168.13 183.67 167.34 183.67 167.34 179.13 166.6 179.13 166.6 175.74 166.04 175.74 166.04 174.77 165.78 174.77 165.78 177.22 164.27 177.22 164.27 173.35 163.41 173.35 163.41 170.57 161.93 170.57 161.93 166.27 161.34 166.27 161.32 163.84 160.95 163.84 160.95 162.54 160.32 162.54 160.32 163.84 158.1 163.84 158.1 163.05 157.53 163.05 157.53 160.55 157.43 160.55 157.43 161.28 156.82 161.28 156.82 162.18 156.23 162.18 156.23 164.25 154.96 164.25 154.96 159.63 153.75 159.63 153.75 161.5 152.37 161.5 152.37 158.1 151.16 158.1 151.16 156.29 150.58 156.29 150.58 153.93 150.03 153.93 150.03 153.13 149.9 153.13 149.9 155.56 149.39 155.56 149.39 156.84 148.14 156.84 148.14 154.01 147.65 154.01 147.65 150.89 145.66 150.89 145.66 151.77 145.15 151.77 145.15 154.07 143.65 154.07 143.65 154.95 143.09 154.95 143.09 156.39 141.79 156.39 141.79 156.85 140.54 156.85 140.54 155.97 139.87 155.97 139.87 155.38 138.52 155.38 138.52 156 137.66 156 137.66 157 137.07 157 137.07 157.79 135.9 157.79 135.9 159.24 135.24 159.24 135.24 161.21 133.88 161.21 133.88 160.48 133.12 160.48 133.12 157.76 132.92 157.76 132.92 160.27 132.36 160.27 132.36 163.01 131.86 163.01 131.86 164.22 129.52 164.22 129.52 164.04 129.17 164.04 129.17 164.95 128.68 164.95 128.68 166.21 126.84 166.21 126.84 165.11 125.86 165.11 125.86 167 124.4 167 124.4 166.45 123.7 166.45 123.7 164.72 123.22 164.72 123.22 163.54 122.87 163.54 122.87 164.95 122.39 164.95 122.39 166.33 121.69 166.41 121.69 169.73 120.22 167.37 120.85 166.98 120.95 167.14 120.95 165.75 121.65 165.67 121.65 164.21 122.13 164.21 122.13 162.8 123.97 162.8 123.97 163.98 124.44 163.98 124.44 165.71 125.11 165.71 125.11 164.37 126.13 164.37 126.13 163.35 127.58 163.35 127.58 165.47 127.94 165.47 127.94 164.21 128.43 164.21 128.43 163.3 128.99 163.3 128.99 160.38 130.26 160.38 130.26 163.48 131.12 163.48 131.12 162.27 131.61 162.27 131.61 159.53 132.17 159.53 132.17 157.02 133.86 157.02 133.86 159.73 134.5 159.73 134.5 158.5 135.15 158.5 135.15 157.05 136.33 157.05 136.33 156.25 136.92 156.25 136.92 155.25 137.77 155.25 137.77 152.37 139.08 152.37 139.08 154.63 140.61 154.63 140.61 155.22 141.04 155.22 141.04 154.74 142.3 154.74 142.3 155.65 142.35 155.65 142.35 154.21 142.91 154.21 142.91 153.33 144.41 153.33 144.41 151.03 144.92 151.03 144.92 150.15 148.39 150.15 148.39 153.27 148.88 153.27 148.88 154.82 149.16 154.82 149.16 152.39 150.77 152.39 150.77 153.19 151.32 153.19 151.32 155.55 151.91 155.55 151.91 156.02 153.11 156.02 153.11 157.08 154.38 157.08 154.38 158.89 155.7 158.89 155.7 161.44 156.08 161.44 156.08 160.54 156.69 160.54 156.69 159.81 158.27 159.81 158.27 162.31 158.84 162.31 158.84 163.09 159.57 163.09 159.57 161.8 161.69 161.8 161.71 163.09 162.09 163.09 162.09 165.53 162.67 165.53 162.67 169.83 164.16 169.83 164.16 172.61 165.01 172.61 165.04 176.47 165.04 174.03 166.78 174.03 166.78 175 167.34 175 167.34 178.39 168.08 178.39 168.08 182.93 168.87 182.93 168.87 185.79 169.9 185.79 169.9 184.46 170.28 184.46 170.28 182.04 173.41 182.04 173.41 187.05 175.65 187.05 175.65 188.5 178.68 188.5 178.68 184.49 179.54 184.49 179.54 178.95 181.57 178.95 181.57 177.5 182.1 177.5 182.1 175.35 182.96 175.35 182.96 174.53 183.54 174.53 183.54 171.14 185.2 171.14 185.2 172.2 186.71 172.2 186.71 172.91 187.27 172.91 187.27 174.47 187.97 174.47 187.97 177.21 188.76 177.21 188.76 174.44 190.48 174.44 190.48 179.27 191.13 179.27 191.13 182.81 191.3 182.81 191.3 177.86 191.8 177.86 191.8 175.53 193.37 175.53 193.37 182.4 194.01 182.4 194.01 184.28 194.45 184.28 194.45 181.28 195.99 181.28 195.99 182.57 196.25 182.57 196.25 181.25 197.28 181.25 197.28 179.18 197.69 179.18 197.69 177.56 199.35 177.56 199.35 179.18 200.97 179.18 200.97 181.84 201.26 181.84 201.26 179.24 202.85 179.24 202.85 182.04 203.53 182.04 203.53 185.67 204 185.67 204 184.34 204.44 184.34 204.44 180.36 205.26 180.36 205.26 177.53 207.98 177.53 207.98 184.96 212.71 184.96 212.71 185.7 207.24 185.7 207.24 178.28 206.01 178.28 206.01 181.11 205.18 181.11 205.18 185.08 204.74 185.08 204.74 186.41 202.79 186.41 202.79 182.78 202.11 182.78 202.11 179.99 202 179.99 202 182.58 200.23 182.58 200.23 179.93 198.61 179.93 198.61 178.31 198.44 178.31 198.44 179.93 198.02 179.93 198.02 181.99 196.99 181.99 196.99 183.32 195.25 183.32 195.25 182.02 195.19 182.02 195.19 185.03 193.27 185.03 193.27 183.14 192.62 183.14 192.62 176.27 192.54 176.27 192.54 178.6 192.04 178.6 192.04 183.55 190.38 183.55 190.38 180.02 189.73 180.02 189.73 175.18 189.51 175.18 189.51 179.37 188.06 179.37 188.06 177.95 187.23 177.95 187.23 175.21 186.52 175.21 186.52 173.65 185.96 173.65 185.96 172.94 184.46 172.94 184.46 171.88 184.29 171.88 184.29 175.27 183.7 175.27 183.7 176.1 182.84 176.1 182.84 178.25 182.31 178.25 182.31 179.69 180.28 179.69 180.28 185.23 179.43 185.23 179.43 189.24"></polygon> <path class="cls-6" d="M254,129.8a14,14,0,1,0,.24-19.86A14.05,14.05,0,0,0,254,129.8Z"></path> <path class="cls-2" d="M247,119.88a16.81,16.81,0,1,1,18.9,16.8l-.1,13.79-3.8,0,.11-13.7A16.82,16.82,0,0,1,247,119.88Zm7.08,9.57a13.55,13.55,0,1,0-3.83-9.54,13.54,13.54,0,0,0,3.83,9.54Z"></path> <path class="cls-7" d="M273.91,117.64a1.48,1.48,0,0,0,.82-1.92,11.6,11.6,0,0,0-11.46-7.08,1.48,1.48,0,0,0-1.39,1.55,1.46,1.46,0,0,0,1.55,1.39,8.64,8.64,0,0,1,8.57,5.24A1.47,1.47,0,0,0,273.91,117.64Z"></path> <polygon points="259.04 182.18 259.04 147.05 256.67 147.05 256.67 142.75 270.94 142.75 270.94 147.05 268.58 147.05 268.58 182.18 259.04 182.18"></polygon> <rect class="cls-2" x="256.67" y="180.03" width="14.28" height="4.3"></rect> <rect class="cls-2" x="260.6" y="162.12" width="6.23" height="0.68"></rect> <rect class="cls-2" x="260.6" y="163.71" width="6.23" height="0.68"></rect> <rect class="cls-2" x="260.6" y="165.3" width="6.23" height="0.68"></rect> <path d="M185,210.45a.84.84,0,0,1-.8.88H150.46a.84.84,0,0,1-.79-.88h0a.85.85,0,0,1,.79-.88h33.78a.85.85,0,0,1,.8.88Z"></path> <rect x="211.41" y="162.18" width="39.18" height="65.9" rx="3.56"></rect> <rect class="cls-4" x="214.97" y="170.03" width="32.06" height="48.97"></rect> <path class="cls-8" d="M231.45,220.07a3.12,3.12,0,1,0,3.11,3.12A3.12,3.12,0,0,0,231.45,220.07Zm0,5.34a2.23,2.23,0,1,1,2.23-2.22A2.21,2.21,0,0,1,231.45,225.41Z"></path> <path class="cls-9" d="M238.69,166.23a.89.89,0,0,1-.89.89H224.44a.89.89,0,0,1-.89-.89h0a.89.89,0,0,1,.89-.89H237.8a.89.89,0,0,1,.89.89Z"></path> <rect x="214.97" y="170.04" width="32.06" height="5.54"></rect> <rect class="cls-2" x="222.93" y="171.62" width="21.44" height="2.38"></rect> <rect class="cls-2" x="216.97" y="171.62" width="3.57" height="0.4"></rect> <rect class="cls-2" x="216.97" y="172.61" width="3.57" height="0.4"></rect> <rect class="cls-2" x="216.97" y="173.61" width="3.57" height="0.4"></rect> <path class="cls-2" d="M237.25,194.67l-3.47-3.47L234,191a4.18,4.18,0,0,0,1.08-4l-.06-.24,4.74-1.27.06.24a9.09,9.09,0,0,1-2.35,8.77Zm-2.78-3.47,2.78,2.77a8.61,8.61,0,0,0,2.11-7.87l-3.8,1A4.69,4.69,0,0,1,234.47,191.2Z"></path> <path class="cls-2" d="M235.09,187.24,235,187a4.15,4.15,0,0,0-2.95-2.95,4.32,4.32,0,0,0-1.08-.14,4.11,4.11,0,0,0-2.94,1.22l-.18.17-3.46-3.47.17-.18A9,9,0,0,1,231,179a8.82,8.82,0,0,1,2.35.31,9.09,9.09,0,0,1,6.42,6.42l.07.24ZM231,183.42a4.52,4.52,0,0,1,1.21.16,4.68,4.68,0,0,1,3.23,3.06l3.79-1a8.61,8.61,0,0,0-6-5.83,8.44,8.44,0,0,0-2.23-.3,8.55,8.55,0,0,0-5.89,2.34l2.78,2.78A4.61,4.61,0,0,1,231,183.42Z"></path> <path class="cls-2" d="M231,197.16a9.36,9.36,0,0,1-2.35-.31,9.08,9.08,0,0,1-4.15-15.11l.17-.17,3.52,3.42-.17.18a4.17,4.17,0,0,0,1.9,6.94,4.45,4.45,0,0,0,1.08.14A4.13,4.13,0,0,0,234,191l.18-.18,3.47,3.47-.18.18A9,9,0,0,1,231,197.16Zm-6.31-14.9a8.58,8.58,0,0,0,4.09,14.11,8.37,8.37,0,0,0,2.22.3,8.52,8.52,0,0,0,5.9-2.35l-2.78-2.77a4.63,4.63,0,0,1-3.12,1.19,4.45,4.45,0,0,1-1.2-.16,4.65,4.65,0,0,1-2.3-7.57Z"></path> <path class="cls-2" d="M228.89,196.91l-.24-.06a9.08,9.08,0,0,1-4.15-15.11l.17-.18,3.52,3.43-.17.18a4.17,4.17,0,0,0,1.9,6.94l.24.06Zm-4.2-14.65a8.59,8.59,0,0,0,3.85,14.05l1-3.8A4.66,4.66,0,0,1,227.5,185Z"></path> <rect x="218.68" y="208.12" width="8.97" height="0.91"></rect> <rect x="218.68" y="210.36" width="19.21" height="0.91"></rect> <rect x="218.68" y="214.19" width="3.84" height="0.3"></rect> <rect x="223.16" y="214.19" width="2.88" height="0.3"></rect> <rect x="226.68" y="214.19" width="2.88" height="0.3"></rect> <rect x="230.2" y="214.19" width="5.76" height="0.3"></rect> <rect x="236.61" y="214.19" width="6.72" height="0.3"></rect> <rect x="218.68" y="215.47" width="6.72" height="0.3"></rect> <rect x="226.04" y="215.47" width="2.88" height="0.3"></rect> <rect x="229.56" y="215.47" width="0.96" height="0.3"></rect> <rect x="231.16" y="215.47" width="3.52" height="0.3"></rect> <rect x="235.33" y="215.47" width="6.4" height="0.3"></rect> <rect x="228.92" y="208.12" width="8.96" height="0.91"></rect> <rect x="218.01" y="204.05" width="1.58" height="1.85"></rect> <rect x="220.23" y="203.24" width="1.58" height="2.65"></rect> <rect x="222.45" y="202.2" width="1.58" height="3.7"></rect> <rect x="224.67" y="204.05" width="1.58" height="1.85"></rect> <rect x="226.89" y="201.96" width="1.58" height="3.94"></rect> <rect x="229.11" y="201.39" width="1.58" height="4.51"></rect> <rect x="231.33" y="200.91" width="1.58" height="4.99"></rect> <rect x="233.54" y="201.39" width="1.58" height="4.51"></rect> <rect x="235.76" y="200.26" width="1.58" height="5.63"></rect> <rect x="237.98" y="200.26" width="1.58" height="5.63"></rect> <rect x="240.2" y="200.26" width="1.58" height="5.63"></rect> <rect x="242.42" y="200.26" width="1.58" height="5.63"></rect> </svg> 