<svg id="Слой_1" data-name="Слой 1" xmlns="http://www.w3.org/2000/svg" viewBox="0 0 80 80"><defs><style>.cls-1{fill:#fff;}</style></defs><title>1</title><circle cx="40" cy="40" r="37.5"/><path class="cls-1" d="M41.91,22.64a.66.66,0,0,0-1,.55v3.67H38.35a.68.68,0,0,0-.41.14l-7.79,6.18a.68.68,0,0,0-.26.52v3.16a.63.63,0,0,0,.2.47.63.63,0,0,0,.47.19l8.14-.05a21.19,21.19,0,0,0-3.12,2.68c-2.33,2.41-3.55,5.93-4.17,8.46a.69.69,0,0,0,.13.57.67.67,0,0,0,.52.25h14a.67.67,0,0,0,.52-.25.68.68,0,0,0,.12-.57,16.48,16.48,0,0,1-.63-4.3,3.79,3.79,0,0,1,1.11-2.07,10.87,10.87,0,0,0,2.71-7.8C49.9,27.75,42.23,22.84,41.91,22.64Zm4.27,18.77a4.86,4.86,0,0,0-1.4,2.84,15.55,15.55,0,0,0,.47,3.85H32.91a16.49,16.49,0,0,1,3.62-7c3.16-3.24,5.11-3.62,5.12-3.62a.66.66,0,0,0-.09-1.32h0l-10.33.07V34l7.36-5.84h3a.67.67,0,0,0,.66-.66V24.47c2,1.54,6.36,5.38,6.38,10A9.59,9.59,0,0,1,46.18,41.41Z"/><path class="cls-1" d="M47.06,51.39H31.45a.67.67,0,0,0-.66.66s0,0,0,.06,0,0,0,.06l0,4.63a.67.67,0,0,0,.66.67H47.06a.67.67,0,0,0,.66-.66V52.06h0A.67.67,0,0,0,47.06,51.39Zm-15,4.76V52.71H46.4v3.44Z"/><path class="cls-1" d="M25.25,45.41a.66.66,0,0,0-.94,0l-2.37,2.37-2.36-2.37a.66.66,0,1,0-.94.93L21,48.71l-2.37,2.37a.67.67,0,0,0,0,.93.68.68,0,0,0,.94,0l2.36-2.37L24.31,52a.68.68,0,0,0,.94,0,.67.67,0,0,0,0-.93l-2.37-2.37,2.37-2.37A.67.67,0,0,0,25.25,45.41Z"/><path class="cls-1" d="M57.33,37.84a4.22,4.22,0,1,0,4.22,4.21A4.23,4.23,0,0,0,57.33,37.84Zm0,7.11a2.9,2.9,0,1,1,2.9-2.9A2.9,2.9,0,0,1,57.33,45Z"/></svg>