<svg id="Слой_1" data-name="Слой 1" xmlns="http://www.w3.org/2000/svg" viewBox="0 0 80 80"><defs><style>.cls-1{fill:#fff;}</style></defs><title>1</title><circle cx="40" cy="40" r="37.5"/><path class="cls-1" d="M59.85,38.86,58.5,35.8a.66.66,0,0,0-.89-.33L54,37.16a.66.66,0,1,0,.56,1.19l1.9-.89-5,11.72-2.83-5.11a.68.68,0,0,0-.61-.34.65.65,0,0,0-.57.39l-4.26,9.37-2.55-4.18a.64.64,0,0,0-.6-.31.65.65,0,0,0-.56.37L34.46,60a.66.66,0,0,0,.31.88.71.71,0,0,0,.28.06.66.66,0,0,0,.6-.38L40.2,51l2.57,4.2a.66.66,0,0,0,1.16-.07l4.23-9.31L51,51a.66.66,0,0,0,.61.34.66.66,0,0,0,.57-.4l5.67-13.33.78,1.78a.66.66,0,0,0,.61.4.58.58,0,0,0,.26-.06A.66.66,0,0,0,59.85,38.86Z"/><path class="cls-1" d="M34.14,35.32A8.14,8.14,0,1,0,26,27.19,8.15,8.15,0,0,0,34.14,35.32Zm0-14.95a6.82,6.82,0,1,1-6.82,6.82A6.82,6.82,0,0,1,34.14,20.37Z"/><path class="cls-1" d="M34.6,52.06a.67.67,0,0,0-.66-.66H21.43a13.41,13.41,0,0,1,22.36-9.3.66.66,0,1,0,.88-1A14.73,14.73,0,0,0,20.09,52.06a.66.66,0,0,0,.66.66H33.94A.66.66,0,0,0,34.6,52.06Z"/></svg>