<svg id="Слой_1" data-name="Слой 1" xmlns="http://www.w3.org/2000/svg" viewBox="0 0 80 80"><defs><style>.cls-1{fill:#fff;}</style></defs><title>1</title><circle cx="40" cy="40" r="37.5"/><path class="cls-1" d="M28.11,49.24h1.17l-1.5,5.06a.66.66,0,0,0,.44.83l.19,0a.65.65,0,0,0,.63-.47l1.62-5.44h4.57l1.62,5.44a.66.66,0,0,0,.63.47l.19,0a.68.68,0,0,0,.45-.83l-1.51-5.06H37.8a.66.66,0,0,0,0-1.32H36.22L35,43.66s0-.07,0-.11a4.16,4.16,0,0,0-.85-7.74V32.74a.66.66,0,0,0-1.32,0v2.95A4.16,4.16,0,0,0,31,43.5a.8.8,0,0,0-.08.16l-1.27,4.26H28.11a.66.66,0,1,0,0,1.32Zm2.06-9.4A2.85,2.85,0,1,1,33,42.69,2.85,2.85,0,0,1,30.17,39.84Zm2,4.2s0-.07,0-.11A4.07,4.07,0,0,0,33,44a3.49,3.49,0,0,0,.65-.06.29.29,0,0,0,0,.09l1.15,3.88H31.05Z"/><path class="cls-1" d="M42.2,55h3.52a.66.66,0,0,0,.66-.66V36.7a.53.53,0,0,0-.05-.25l-1.76-4.3a.66.66,0,0,0-1.22,0l-1.76,4.3a.58.58,0,0,0-.05.26v17.6A.67.67,0,0,0,42.2,55Zm.66-1.32V52.33h2.2v1.32ZM44,34.14l1.1,2.69V51h-2.2V36.83Z"/><path class="cls-1" d="M50.56,25H24.15a.67.67,0,0,0-.66.66v33.9a.67.67,0,0,0,.66.66H50.56a.66.66,0,0,0,.66-.66V25.69A.66.66,0,0,0,50.56,25Zm-.66,33.9H24.81V26.35H49.9Z"/><path class="cls-1" d="M55.85,19.75H29.44a.66.66,0,0,0-.66.66v3.52a.66.66,0,0,0,1.32,0V21.07H55.19V53.65H52.77a.66.66,0,1,0,0,1.32h3.08a.67.67,0,0,0,.66-.66V20.41A.67.67,0,0,0,55.85,19.75Z"/></svg>